<svg width="67" height="67" viewBox="0 0 67 67" fill="none" xmlns="http://www.w3.org/2000/svg">
<circle cx="33.5" cy="33.5" r="33.5" fill="white"/>
<path d="M32.9004 13.1611C32.1946 13.1611 31.4974 13.2635 30.8299 13.4262C30.4395 13.5226 30.063 13.6491 29.6866 13.7974C29.5419 13.8551 29.394 13.8913 29.2512 13.9565C29.192 13.9834 29.1467 14.0345 29.0879 14.0626C28.7338 14.2332 28.3871 14.4309 28.0532 14.6459C28.0061 14.6754 27.9362 14.6686 27.8897 14.6989C27.7916 14.7645 27.7137 14.8418 27.6175 14.9109C27.344 15.102 27.057 15.2774 26.8004 15.4943C26.5665 15.6991 26.3658 15.9565 26.1468 16.1836C25.406 16.9232 24.7637 17.7058 24.2405 18.623C23.3422 20.1559 22.6716 21.8818 22.3889 23.6605C22.2524 23.6325 22.1273 23.6225 22.0076 23.6605C21.0924 23.9507 20.8669 25.6433 21.4629 27.4253C21.8127 28.4711 22.3947 29.2944 22.9879 29.7585C23.7849 32.7752 25.4727 35.29 27.6718 36.8647V38.6142L25.929 40.311L22.4433 42.0079C19.6246 43.3671 16.8166 44.7314 14.0012 46.0906C12.4411 47.0069 11.8375 48.8056 11.9861 50.4923C12.0587 51.5545 11.6646 52.9137 12.7486 53.6213C13.7785 54.1371 15.0072 53.8012 16.1254 53.886C19.3961 53.8843 22.6583 53.886 25.929 53.886C30.5807 53.8877 35.2202 53.886 39.8719 53.886C43.9972 53.886 48.1103 53.8928 52.2357 53.886C53.5742 53.7944 53.9454 52.4182 53.8147 51.3407C53.8391 49.7592 53.935 47.9877 52.6714 46.7795C51.6396 45.758 50.1721 45.3541 48.9138 44.6584C47.0646 43.7676 45.205 42.8988 43.3576 42.0079L39.8719 40.311L38.129 38.6142V36.8647C40.3285 35.29 42.0156 32.7752 42.8138 29.7585C43.4064 29.2943 43.9885 28.471 44.3371 27.4253C44.9331 25.6433 44.7083 23.9507 43.7933 23.6605C43.673 23.6225 43.5493 23.6325 43.4116 23.6605C43.1293 21.8818 42.4583 20.1559 41.5607 18.623C41.0378 17.7058 40.3947 16.9232 39.654 16.1836C39.4344 15.9565 39.234 15.6991 39.0004 15.4943C38.99 15.485 38.9569 15.5036 38.9464 15.4943C38.2632 14.9006 37.505 14.444 36.7138 14.0626C36.5134 13.9672 36.3182 13.8784 36.1143 13.7974C35.9678 13.7397 35.8267 13.6884 35.6785 13.6383C35.2341 13.4882 34.7792 13.3438 34.3156 13.2672C34.2808 13.2614 34.2424 13.2725 34.2076 13.2672C33.7736 13.2007 33.3449 13.1564 32.9004 13.1611Z" fill="#00897B"/>
<path d="M11.9861 52.1892C12.0321 52.6983 12.2066 53.2072 12.7486 53.5466C13.7784 54.0556 15.0072 53.7164 16.1254 53.8861H25.9289H39.8718H52.2356C53.2395 53.7164 53.7031 53.0376 53.8147 52.1892H11.9861Z" fill="#00897B"/>
</svg>
